<svg width="180" height="161" viewBox="0 0 180 161" fill="none" xmlns="http://www.w3.org/2000/svg">
<path d="M76.7484 145.867C73.8251 150.811 75.5688 156.974 80.6432 159.632C85.7176 162.29 92.2011 160.437 95.1245 155.493L85.9365 150.68L76.7484 145.867ZM178.212 14.9785C181.136 10.0346 179.392 3.87194 174.318 1.2138C169.243 -1.44434 162.76 0.408638 159.836 5.35254L169.024 10.1655L178.212 14.9785ZM85.9365 150.68L95.1245 155.493L178.212 14.9785L169.024 10.1655L159.836 5.35254L76.7484 145.867L85.9365 150.68Z" fill="#493D22"/>
<ellipse cx="15.3801" cy="14.8406" rx="15.3801" ry="14.8406" transform="matrix(0.897386 0.441245 -0.486891 0.873463 150.252 9.85449)" fill="#493D22"/>
<path d="M87.0771 58.1044C98.5348 58.1044 109.877 60.3969 120.453 64.8466C131.029 69.2962 140.629 75.8134 148.707 84.0185C156.785 92.2232 163.184 101.955 167.547 112.654C171.91 123.353 174.154 134.814 174.154 146.385V156.77H135.046V146.385C135.046 139.943 133.797 133.568 131.373 127.625C128.95 121.682 125.401 116.293 120.938 111.761C116.477 107.229 111.189 103.643 105.381 101.199C99.573 98.7557 93.3538 97.4999 87.0771 97.4999C80.8006 97.4999 74.5812 98.7558 68.7734 101.199C62.9653 103.643 57.6766 107.229 53.2148 111.761C48.7528 116.293 45.2047 121.682 42.7812 127.625C40.3578 133.568 39.1084 139.943 39.1084 146.385V156.77H0V146.385C2.76477e-05 134.814 2.24358 123.353 6.60645 112.654C10.9696 101.955 17.3694 92.2232 25.4473 84.0185C33.5255 75.8134 43.1251 69.2961 53.7012 64.8466C64.2776 60.3969 75.6195 58.1044 87.0771 58.1044Z" fill="#493D22"/>
</svg>
