<svg width="32" height="32" viewBox="0 0 32 32" fill="none" xmlns="http://www.w3.org/2000/svg">
<path d="M11.9791 31.1166C11.7938 31.6368 11.2219 31.9084 10.7016 31.7231C10.1813 31.5379 9.90973 30.9659 10.095 30.4456L11.0371 30.7811L11.9791 31.1166ZM11.0371 30.7811L10.095 30.4456C10.6059 29.0111 11.0611 27.6528 11.3876 26.621C11.5512 26.1042 11.6805 25.6752 11.7681 25.3621C11.8121 25.2046 11.8433 25.0847 11.8625 25.0015C11.8917 24.8759 11.8734 24.9172 11.8734 25.0157L12.8734 25.0157L13.8734 25.0157C13.8734 25.1859 13.8299 25.371 13.8109 25.4532C13.782 25.5778 13.742 25.7298 13.6942 25.9006C13.5982 26.2441 13.4614 26.6968 13.2944 27.2244C12.96 28.2813 12.497 29.6622 11.9791 31.1166L11.0371 30.7811Z" fill="white"/>
<path d="M18.306 0.000357628C17.516 0.0169056 16.8282 0.507169 16.2611 1.14294C15.6882 1.78524 15.1932 2.62541 14.7903 3.44567C14.3862 4.26867 14.0668 5.0886 13.8489 5.70055C13.7589 5.95357 13.6878 6.17287 13.6331 6.34215C13.5029 6.26576 13.34 6.17108 13.1527 6.06383C12.6564 5.77978 11.9863 5.40624 11.2943 5.05212C10.6045 4.69919 9.88227 4.3602 9.28547 4.14782C8.98888 4.04228 8.70842 3.9623 8.47101 3.932C8.35225 3.91687 8.23119 3.91225 8.11847 3.92907C8.00659 3.9458 7.87995 3.98777 7.77668 4.08337C7.30044 4.52514 7.12691 5.28266 7.08527 6.06383C7.04269 6.86461 7.13495 7.78268 7.27179 8.64098C7.40913 9.50219 7.59397 10.3179 7.74445 10.9164C7.76582 11.0014 7.78913 11.0817 7.8089 11.1576C7.66672 11.0783 7.50528 10.9905 7.32843 10.8968C6.63785 10.5313 5.70339 10.0773 4.74054 9.73473C3.78668 9.39538 2.76457 9.1506 1.91437 9.23669C1.48446 9.2803 1.07901 9.41045 0.750309 9.67419C0.417712 9.94137 0.189288 10.3255 0.0813637 10.8256C-0.127329 11.7935 0.0856467 12.8317 0.489567 13.8197C0.894931 14.811 1.50507 15.7824 2.13117 16.6312C2.75828 17.4814 3.40805 18.2187 3.9007 18.7425C4.01989 18.8693 4.13031 18.9836 4.22882 19.0843C3.8596 19.1207 3.3794 19.1876 2.87629 19.3148C1.81772 19.5826 0.530003 20.1461 0.0921059 21.3636C-0.0479072 21.7533 0.0621292 22.1351 0.293278 22.4642C0.520374 22.7875 0.881607 23.0891 1.31964 23.3646C2.19927 23.9178 3.47179 24.4177 4.88507 24.7894C6.30189 25.162 7.87971 25.4112 9.37726 25.4525C10.3166 25.4784 11.2341 25.4195 12.0657 25.2562C12.0715 25.101 12.0972 24.9134 12.1292 24.7289C12.1679 24.5056 12.2238 24.2319 12.2923 23.9193C12.4252 23.3126 12.6127 22.5339 12.8353 21.641L7.37043 22.0619C6.95757 22.0936 6.59673 21.7842 6.56476 21.3715C6.533 20.9585 6.8423 20.5977 7.25519 20.5658L11.7737 20.2181L2.97785 13.6078C2.64692 13.359 2.58003 12.8891 2.82843 12.558C3.07724 12.227 3.54715 12.16 3.87824 12.4086L13.3704 19.5423C13.7381 18.1106 14.1494 16.5217 14.5648 14.9183C14.6567 14.5635 14.7466 14.2069 14.8382 13.8519L10.7552 9.31579C10.4782 9.00797 10.5032 8.53334 10.8109 8.25622C11.1187 7.97914 11.5933 8.00405 11.8704 8.31188L15.2864 12.1058C15.654 10.6631 16.0025 9.27368 16.2943 8.0404C16.7808 5.98355 17.0929 4.44822 17.1234 3.80505C17.1429 3.39135 17.4939 3.07177 17.9075 3.09118C18.3212 3.11068 18.6408 3.46167 18.6214 3.87536C18.583 4.68878 18.229 6.37884 17.7542 8.3861C17.4478 9.6813 17.0806 11.1446 16.6946 12.6566L22.9173 10.1947C23.3022 10.0423 23.7383 10.2309 23.8909 10.6156C24.0433 11.0006 23.8549 11.4367 23.47 11.5892L16.2337 14.4535C16.1613 14.7338 16.0894 15.0146 16.0169 15.2943C15.6164 16.8403 15.2222 18.3655 14.8665 19.7484L24.3284 17.1664C24.728 17.0575 25.1403 17.2932 25.2493 17.6927C25.358 18.0922 25.1224 18.5046 24.723 18.6136L16.2269 20.932L20.6478 23.1429C21.018 23.3282 21.1686 23.7785 20.9837 24.1488C20.7985 24.5189 20.3481 24.6695 19.9778 24.4847L14.3724 21.681C14.3524 21.7607 14.3313 21.8395 14.3118 21.9173C14.0806 22.8431 13.8896 23.6358 13.7571 24.2406C13.6909 24.5432 13.6402 24.7931 13.6068 24.9857C13.6022 25.0121 13.5998 25.0373 13.596 25.0609C13.6003 25.063 13.6044 25.0656 13.6087 25.0677C13.8901 25.2074 14.2933 25.4029 14.7806 25.6263C15.7546 26.0729 17.0706 26.6342 18.43 27.0863C19.7835 27.5364 21.2066 27.8876 22.3861 27.8978C23.5532 27.9078 24.6138 27.5774 25.0081 26.516C25.4707 25.2695 25.0373 24.2732 24.5091 23.6136C24.2834 23.332 24.0381 23.1074 23.8333 22.9437C24.1186 22.8171 24.5069 22.6418 24.9573 22.4261C25.9199 21.9653 27.1755 21.3211 28.3353 20.5931C29.4858 19.8709 30.5792 19.0443 31.1829 18.2093C31.4859 17.7902 31.6895 17.3364 31.6819 16.8715C31.6739 16.3916 31.4422 15.9573 30.9964 15.5873C30.4901 15.1671 29.7778 14.9248 29.0325 14.7855C28.2807 14.645 27.459 14.6024 26.7044 14.6068C25.9485 14.6113 25.25 14.6631 24.7415 14.7132C24.7116 14.7162 24.6822 14.7201 24.6536 14.723C24.7346 14.6149 24.8259 14.4952 24.9212 14.3646C25.3395 13.7917 25.8782 13.0187 26.3548 12.2269C26.8274 11.4418 27.2559 10.6115 27.4319 9.92907C27.5191 9.59094 27.5552 9.24797 27.47 8.95348C27.3766 8.63095 27.1455 8.39868 26.7903 8.30407C25.5761 7.98071 24.1006 7.84498 22.9407 7.78942C22.3583 7.76153 21.85 7.75337 21.4876 7.75231C21.3889 7.75202 21.3007 7.7528 21.2249 7.75329C21.2248 7.74553 21.2241 7.73687 21.2239 7.72887C21.2199 7.51263 21.2106 7.20435 21.1917 6.83532C21.154 6.09715 21.0759 5.10905 20.9134 4.12047C20.7518 3.13739 20.503 2.12835 20.1136 1.36071C19.7291 0.603037 19.1521 -0.0170531 18.306 0.000357628Z" fill="white"/>
</svg>
